<svg xmlns="http://www.w3.org/2000/svg" width="48" height="80"><defs><filter id="a"><feColorMatrix in="SourceGraphic" values="0 0 0 0 0.180392 0 0 0 0 0.180392 0 0 0 0 0.180392 0 0 0 1.000000 0"/></filter></defs><g filter="url(#a)" transform="translate(-163 -148)" fill="none" fill-rule="evenodd"><path fill="#000" fill-rule="nonzero" d="M173.526 227.053h27.369c5.368 0 9.79-4.421 9.79-9.79v-58.526c0-5.369-4.422-9.79-9.79-9.79h-27.369c-5.368 0-9.79 4.421-9.79 9.79v58.526c0 5.369 4.422 9.79 9.79 9.79zm-6.315-68.316c0-3.474 2.842-6.316 6.315-6.316h27.369c3.473 0 6.316 2.842 6.316 6.316v58.526c0 3.474-2.843 6.316-6.316 6.316h-27.369c-3.473 0-6.315-2.842-6.315-6.316v-58.526zm20.526 61.21a2 2 0 100-4 2 2 0 000 4zm-11.053-46.157h-3.473v-10.42h10.42v3.473h-6.841v6.947h-.105zm21.053-6.842h-6.842v-3.473h10.42v10.42h-3.473v-6.947h-.105zm3.474 24.527h-10.422V188h6.843v-6.842h3.473v10.316h.106zm-17.685 0h-10.42v-10.422h3.473v6.842h6.842v3.579h.105z"/></g></svg>