<?xml version="1.0" encoding="UTF-8"?>
<svg width="55px" height="55px" viewBox="0 0 55 55" version="1.1" xmlns="http://www.w3.org/2000/svg" xmlns:xlink="http://www.w3.org/1999/xlink">
    <title>Icon</title>
    <defs>
        <circle id="path-1" cx="27.5" cy="27.5" r="27.5"></circle>
        <linearGradient x1="50%" y1="40.0061411%" x2="50%" y2="78.264298%" id="linearGradient-3">
            <stop stop-color="#FFFFFF" offset="0%"></stop>
            <stop stop-color="#C5C5C5" offset="100%"></stop>
            <stop stop-color="#D4A6A6" offset="100%"></stop>
        </linearGradient>
    </defs>
    <g id="Components" stroke="none" stroke-width="1" fill="none" fill-rule="evenodd">
        <g id="Card/72/Card-Go-Venue-Check-in" transform="translate(-16.000000, -17.000000)">
            <g id="Icon" transform="translate(16.000000, 17.000000)">
                <mask id="mask-2" fill="white">
                    <use xlink:href="#path-1"></use>
                </mask>
                <use id="Mask" fill="#DCF0E6" xlink:href="#path-1"></use>
                <g id="Group" mask="url(#mask-2)">
                    <g transform="translate(27.500000, 42.000000) rotate(-360.000000) translate(-27.500000, -42.000000) translate(8.000000, 12.000000)">
                        <g id="Device">
                            <path d="M30,0 C34.9705627,0 39,4.02943725 39,9 L39,51 C39,55.9705627 34.9705627,60 30,60 L9,60 C4.02943725,60 0,55.9705627 0,51 L0,9 C0,4.02943725 4.02943725,0 9,0 L30,0 Z" id="Path" fill="#2E2E2E" fill-rule="nonzero"></path>
                            <path d="M30,7 L9,7 C5.76160306,7 3.12242824,9.3755323 3.00413847,12.3472794 L3,12.5555556 L3,51.4444444 C3,54.4429601 5.56557489,56.8866405 8.77506174,56.9961681 L9,57 L30,57 C33.2383969,57 35.8775718,54.6244677 35.9958615,51.6527206 L36,51.4444444 L36,12.5555556 C36,9.55703987 33.4344251,7.11335948 30.2249383,7.00383192 L30,7 Z" id="Path" fill="url(#linearGradient-3)" fill-rule="nonzero"></path>
                            <g id="Group-2" transform="translate(12.000000, 3.000000)" fill="#FFFFFF">
                                <circle id="Oval" cx="14" cy="1" r="1"></circle>
                                <rect id="Rectangle" x="0" y="0" width="11" height="2" rx="1"></rect>
                            </g>
                        </g>
                        <g id="QR-2" transform="translate(11.000000, 14.000000)">
                            <path d="M6.58235872,11.3153478 L6.58235872,17.7812609 L-4.7699622e-12,17.7812609 L-4.7699622e-12,11.3153478 L6.58235872,11.3153478 Z M17.9376428,12.123587 L17.9376428,17.7812609 L13.8854932,17.7812609 L13.8854932,16.3927886 L16.588743,16.3927886 L16.588743,12.123587 L17.9376428,12.123587 Z M12.597907,16.172865 L12.597907,17.7731785 L10.0499851,17.7731785 L10.0499851,16.172865 L12.597907,16.172865 Z M5.23345888,12.9318261 L1.34889984,12.9318261 L1.34889984,16.1647826 L5.23345888,16.1647826 L5.23345888,12.9318261 Z M12.597907,8.0823913 L12.597907,15.3565435 L7.80181867,15.3565435 L7.80181867,13.9772271 L11.2490072,13.9772271 L11.2490072,8.0823913 L12.597907,8.0823913 Z M15.4156089,8.0823913 L15.4156089,15.3565435 L14.066709,15.3565435 L14.066709,8.0823913 L15.4156089,8.0823913 Z M9.6439526,8.0823913 L9.6439526,12.123587 L8.29505276,12.123587 L8.29505276,9.44971314 L-3.70370401e-12,9.44971314 L-3.70370401e-12,8.0823913 L9.6439526,8.0823913 Z M17.9376428,8.0823913 L17.9376428,9.69886957 L16.588743,9.69886957 L16.588743,8.0823913 L17.9376428,8.0823913 Z M6.58235872,3.64597241e-13 L6.58235872,6.46591304 L-4.7699622e-12,6.46591304 L-4.7699622e-12,3.64597241e-13 L6.58235872,3.64597241e-13 Z M17.9390054,3.64597241e-13 L17.9390054,6.46591304 L11.3566466,6.46591304 L11.3566466,3.64597241e-13 L17.9390054,3.64597241e-13 Z M9.6439526,2.42471739 L9.6439526,6.46591304 L8.29505276,6.46591304 L8.29505276,2.42471739 L9.6439526,2.42471739 Z M5.23345888,1.61647826 L1.34889984,1.61647826 L1.34889984,4.84943478 L5.23345888,4.84943478 L5.23345888,1.61647826 Z M16.5901055,1.61647826 L12.7055465,1.61647826 L12.7055465,4.84943478 L16.5901055,4.84943478 L16.5901055,1.61647826 Z M9.6439526,4.70956607e-13 L9.6439526,1.61647826 L8.29505276,1.61647826 L8.29505276,4.70956607e-13 L9.6439526,4.70956607e-13 Z" id="QR" fill="#234A4C" fill-rule="nonzero" transform="translate(8.969503, 8.890630) rotate(-360.000000) translate(-8.969503, -8.890630) "></path>
                        </g>
                    </g>
                </g>
            </g>
        </g>
    </g>
</svg>