<svg width="55" height="55" xmlns="http://www.w3.org/2000/svg" xmlns:xlink="http://www.w3.org/1999/xlink"><defs><linearGradient x1="50%" y1="40.006%" x2="50%" y2="78.264%" id="c"><stop stop-color="#FFF" offset="0%"/><stop stop-color="#C5C5C5" offset="100%"/><stop stop-color="#D4A6A6" offset="100%"/></linearGradient><circle id="a" cx="27.5" cy="27.5" r="27.5"/></defs><g fill="none" fill-rule="evenodd"><mask id="b" fill="#fff"><use xlink:href="#a"/></mask><use fill="#DCF0E6" xlink:href="#a"/><g mask="url(#b)"><path d="M38 12a9 9 0 019 9v42a9 9 0 01-9 9H17a9 9 0 01-9-9V21a9 9 0 019-9h21z" fill="#2E2E2E" fill-rule="nonzero"/><path d="M30 7H9c-3.238 0-5.878 2.376-5.996 5.347L3 12.556v38.888c0 2.999 2.566 5.443 5.775 5.552L9 57h21c3.238 0 5.878-2.376 5.996-5.347l.004-.209V12.556c0-2.999-2.566-5.443-5.775-5.552L30 7z" fill="url(#c)" fill-rule="nonzero" transform="translate(8 12)"/><g transform="translate(20 15)" fill="#FFF"><circle cx="14" cy="1" r="1"/><rect width="11" height="2" rx="1"/></g><g><path d="M25.582 37.315v6.466H19v-6.466h6.582zm11.356.809v5.657h-4.053v-1.388h2.704v-4.27h1.349zm-5.34 4.049v1.6H29.05v-1.6h2.548zm-7.365-3.241H20.35v3.233h3.884v-3.233zm7.365-4.85v7.275h-4.796v-1.38h3.447v-5.895h1.349zm2.818 0v7.275h-1.35v-7.275h1.35zm-5.772 0v4.042h-1.349V35.45H19v-1.368h9.644zm8.294 0V35.7h-1.35v-1.617h1.35zM25.582 26v6.466H19V26h6.582zm11.357 0v6.466h-6.582V26h6.582zm-8.295 2.425v4.04h-1.349v-4.04h1.349zm-4.41-.809h-3.885v3.233h3.884v-3.233zm11.356 0h-3.884v3.233h3.884v-3.233zM28.644 26v1.616h-1.349V26h1.349z" fill="#234A4C" fill-rule="nonzero"/></g></g></g></svg>